<svg width="35" height="35" viewBox="0 0 35 35" fill="none" xmlns="http://www.w3.org/2000/svg">
<path d="M29.1667 17.5V32.0833H5.83337V17.5" stroke="#EB3850" stroke-width="2" stroke-linecap="round" stroke-linejoin="round"/>
<path d="M32.0833 10.2083H2.91663V17.4999H32.0833V10.2083Z" stroke="#EB3850" stroke-width="2" stroke-linecap="round" stroke-linejoin="round"/>
<path d="M17.5 32.0833V10.2083" stroke="#EB3850" stroke-width="2" stroke-linecap="round" stroke-linejoin="round"/>
<path d="M17.5 10.2084H10.9375C9.97052 10.2084 9.04319 9.8243 8.35947 9.14057C7.67574 8.45685 7.29163 7.52952 7.29163 6.56258C7.29163 5.59565 7.67574 4.66831 8.35947 3.98459C9.04319 3.30086 9.97052 2.91675 10.9375 2.91675C16.0416 2.91675 17.5 10.2084 17.5 10.2084Z" stroke="#EB3850" stroke-width="2" stroke-linecap="round" stroke-linejoin="round"/>
<path d="M17.5 10.2084H24.0625C25.0294 10.2084 25.9568 9.8243 26.6405 9.14057C27.3242 8.45685 27.7083 7.52952 27.7083 6.56258C27.7083 5.59565 27.3242 4.66831 26.6405 3.98459C25.9568 3.30086 25.0294 2.91675 24.0625 2.91675C18.9583 2.91675 17.5 10.2084 17.5 10.2084Z" stroke="#EB3850" stroke-width="2" stroke-linecap="round" stroke-linejoin="round"/>
</svg>
