<svg width="60" height="60" viewBox="0 0 60 60" fill="none" xmlns="http://www.w3.org/2000/svg">
<rect width="60" height="60" rx="8" fill="#FFF8F9"/>
<path d="M29.5 13.4584V45.5417" stroke="#EB3850" stroke-width="2" stroke-linecap="round" stroke-linejoin="round"/>
<path d="M36.7917 19.2916H25.8542C24.5005 19.2916 23.2022 19.8294 22.245 20.7866C21.2878 21.7438 20.75 23.0421 20.75 24.3958C20.75 25.7495 21.2878 27.0478 22.245 28.005C23.2022 28.9622 24.5005 29.5 25.8542 29.5H33.1458C34.4995 29.5 35.7978 30.0377 36.755 30.9949C37.7122 31.9522 38.25 33.2504 38.25 34.6041C38.25 35.9578 37.7122 37.2561 36.755 38.2133C35.7978 39.1705 34.4995 39.7083 33.1458 39.7083H20.75" stroke="#EB3850" stroke-width="2" stroke-linecap="round" stroke-linejoin="round"/>
</svg>
